<?xml version="1.0" encoding="utf-8"?>
<!-- Generator: Adobe Illustrator 23.0.1, SVG Export Plug-In . SVG Version: 6.00 Build 0)  -->
<svg version="1.1" id="Calque_1" xmlns="http://www.w3.org/2000/svg" xmlns:xlink="http://www.w3.org/1999/xlink" x="0px" y="0px"
	 viewBox="0 0 211 200" style="enable-background:new 0 0 211 200;" xml:space="preserve">
<style type="text/css">
	.st0{fill:none;}
</style>
<g>
	<g>
		<rect x="-12.4" y="110.06" class="st0" width="235.8" height="59.42"/>
		<path d="M34.95,121.78v41.75H21.81v-41.75H8.67v-11.71h39.42v11.71H34.95z"/>
		<path d="M69.64,163.53v-3.3c-2.48,2.48-4.73,3.68-9.01,3.68c-4.06,0-7.43-1.35-9.69-3.6c-2.33-2.33-3.53-5.71-3.53-9.46
			c0-6.08,4.13-11.71,13.74-11.71h8.18v-1.05c0-3.68-1.8-5.03-6.08-5.03c-3.15,0-4.51,0.75-6.46,2.7l-7.66-7.66
			c4.13-4.13,7.88-5.41,14.72-5.41c11.56,0,17.8,4.81,17.8,14.64v26.21H69.64z M69.34,147.31h-6.23c-2.4,0-3.9,1.35-3.9,3.23
			c0,1.8,1.35,3.38,4.05,3.38c2.4,0,3.53-0.23,4.88-1.5c0.9-0.83,1.2-2.1,1.2-4.05V147.31z"/>
		<path d="M109.89,163.53v-3.3c-2.48,2.48-4.73,3.68-9.01,3.68c-4.06,0-7.43-1.35-9.69-3.6c-2.33-2.33-3.53-5.71-3.53-9.46
			c0-6.08,4.13-11.71,13.74-11.71h8.18v-1.05c0-3.68-1.8-5.03-6.08-5.03c-3.15,0-4.51,0.75-6.46,2.7l-7.66-7.66
			c4.13-4.13,7.88-5.41,14.72-5.41c11.56,0,17.8,4.81,17.8,14.64v26.21H109.89z M109.59,147.31h-6.23c-2.4,0-3.9,1.35-3.9,3.23
			c0,1.8,1.35,3.38,4.05,3.38c2.4,0,3.53-0.23,4.88-1.5c0.9-0.83,1.2-2.1,1.2-4.05V147.31z"/>
		<path d="M146.91,163.98c-6.98,0-18.17-3-18.17-20.65c0-17.65,11.19-20.65,18.17-20.65c5.63,0,9.99,1.88,13.29,5.18l-8.33,8.34
			c-1.58-1.58-2.93-2.4-4.96-2.4c-1.65,0-2.78,0.53-3.83,1.58c-1.43,1.5-2.03,4.13-2.03,7.96s0.6,6.46,2.03,7.96
			c1.05,1.05,2.18,1.58,3.83,1.58c2.03,0,3.38-0.83,4.96-2.4l8.33,8.34C156.9,162.1,152.54,163.98,146.91,163.98z"/>
		<path d="M189.34,163.53l-8.41-14.79l-2.4,2.63v12.17h-12.31v-53.46h12.31v27.18l10.89-14.12h14.79l-14.87,16.75l15.24,23.65
			H189.34z"/>
	</g>
	<g>
		<rect x="8.64" y="173.99" class="st0" width="196.67" height="17.52"/>
		<path d="M24.97,184.77c-1.02,0-1.97-0.39-2.67-1.1c-0.98-0.98-0.99-1.94-0.99-4.34c0-2.42,0.02-3.36,0.99-4.34
			c0.71-0.71,1.65-1.1,2.67-1.1c1.92,0,3.27,1.2,3.63,3.12h-0.83c-0.32-1.49-1.37-2.4-2.81-2.4c-0.77,0-1.49,0.29-2.03,0.83
			c-0.77,0.77-0.83,1.61-0.83,3.89s0.06,3.12,0.83,3.89c0.54,0.54,1.26,0.83,2.03,0.83c1.44,0,2.52-0.92,2.84-2.4h0.8
			C28.24,183.57,26.86,184.77,24.97,184.77z"/>
		<path d="M35.15,179.76h-2.94v4.93H31.4v-10.69h4.07c1.74,0,3.06,1.01,3.06,2.87c0,1.61-0.96,2.63-2.46,2.88l2.58,4.94H37.7
			L35.15,179.76z M35.36,174.71h-3.15v4.32h3.15c1.38,0,2.36-0.68,2.36-2.16S36.74,174.71,35.36,174.71z"/>
		<path d="M41.26,173.99h6.49v0.72h-5.68v4.22h4.83v0.72h-4.83v4.31h5.68v0.72h-6.49V173.99z"/>
		<path d="M55.6,182.09h-4.98l-0.93,2.6h-0.87l3.93-10.69h0.72l3.93,10.69h-0.87L55.6,182.09z M50.88,181.37h4.47l-2.24-6.29
			L50.88,181.37z"/>
		<path d="M61.18,184.68h-0.81v-9.97h-3.18v-0.72h7.19v0.72h-3.2V184.68z"/>
		<path d="M66.48,173.99h0.81v10.69h-0.81V173.99z"/>
		<path d="M72.61,184.68l-3.51-10.69h0.86l3,9.26l3-9.26h0.86l-3.51,10.69H72.61z"/>
		<path d="M78.61,173.99h6.49v0.72h-5.68v4.22h4.83v0.72h-4.83v4.31h5.68v0.72h-6.49V173.99z"/>
		<path d="M97.69,183.71c-0.65,0.65-1.55,0.98-2.67,0.98h-3.59v-10.69h3.59c1.13,0,2.03,0.33,2.67,0.98
			c1.08,1.08,1.04,2.78,1.04,4.22S98.77,182.63,97.69,183.71z M97.12,175.54c-0.62-0.65-1.44-0.83-2.3-0.83h-2.58v9.25h2.58
			c0.86,0,1.68-0.18,2.3-0.83c0.84-0.89,0.8-2.75,0.8-3.95S97.96,176.42,97.12,175.54z"/>
		<path d="M101.61,173.99h6.49v0.72h-5.68v4.22h4.83v0.72h-4.83v4.31h5.68v0.72h-6.49V173.99z"/>
		<path d="M112.6,184.68l-3.51-10.69h0.86l3,9.26l3-9.26h0.86l-3.51,10.69H112.6z"/>
		<path d="M118.61,173.99h6.49v0.72h-5.68v4.22h4.83v0.72h-4.83v4.31h5.68v0.72h-6.49V173.99z"/>
		<path d="M127.59,173.99h0.81v9.97h5.68v0.72h-6.49V173.99z"/>
		<path d="M141.71,183.68c-0.71,0.71-1.65,1.1-2.67,1.1c-1.02,0-1.97-0.39-2.67-1.1c-0.98-0.98-0.99-1.94-0.99-4.34
			c0-2.42,0.01-3.36,0.99-4.34c0.71-0.71,1.65-1.1,2.67-1.1c1.02,0,1.97,0.39,2.67,1.1c0.98,0.98,0.99,1.92,0.99,4.34
			C142.7,181.74,142.68,182.7,141.71,183.68z M141.06,175.45c-0.54-0.54-1.26-0.83-2.03-0.83c-0.77,0-1.49,0.29-2.03,0.83
			c-0.77,0.77-0.83,1.61-0.83,3.89s0.06,3.12,0.83,3.89c0.54,0.54,1.26,0.83,2.03,0.83c0.77,0,1.49-0.29,2.03-0.83
			c0.77-0.77,0.83-1.61,0.83-3.89S141.83,176.21,141.06,175.45z"/>
		<path d="M149.5,180.15h-3.11v4.54h-0.81v-10.69h3.92c1.85,0,3.23,1.11,3.23,3.08C152.73,179.02,151.35,180.15,149.5,180.15z
			 M149.41,174.71h-3.02v4.71h3.02c1.49,0,2.51-0.75,2.51-2.36C151.92,175.46,150.9,174.71,149.41,174.71z"/>
		<path d="M163.23,175.87l-3.24,7.31h-0.81l-3.3-7.31v8.81h-0.81v-10.69h0.81l3.72,8.24l3.63-8.24h0.81v10.69h-0.81V175.87z"/>
		<path d="M167.34,173.99h6.49v0.72h-5.68v4.22h4.83v0.72h-4.83v4.31h5.68v0.72h-6.49V173.99z"/>
		<path d="M177.14,175.39v9.29h-0.81v-10.69h0.81l6.17,9.26v-9.26h0.81v10.69h-0.81L177.14,175.39z"/>
		<path d="M190.22,184.68h-0.81v-9.97h-3.18v-0.72h7.19v0.72h-3.2V184.68z"/>
	</g>
	<g>
		<g>
			<g>
				<path d="M44.22,22.18l5.67-13.15c0.29-0.66,1.65-0.71,3.04-0.11l60.73,31.86c2.87,1.24,3.06,2.63,2.47,3.99l-0.41,0.96
					c-0.59,1.36-1.73,2.18-4.6,0.94l-64.89-22.2C44.83,23.86,43.93,22.84,44.22,22.18z"/>
			</g>
			<path d="M101.21,33.83c0.35,0.15,0.67,0.34,0.96,0.56l0.15-0.11c0.13-0.1,0.23-0.19,0.34-0.29c0.08-0.07,0.17-0.15,0.26-0.23
				c0.09-0.08,0.18-0.18,0.27-0.26c0.16-0.15,0.34-0.32,0.5-0.51l0.49-0.53l0.46-0.58c0.22-0.25,0.39-0.5,0.59-0.8
				c0.11-0.15,0.22-0.31,0.33-0.47c0.08-0.14,0.17-0.28,0.26-0.42c0.21-0.35,0.41-0.68,0.57-1.01l0.11-0.24
				c0.21-0.44,0.44-0.89,0.6-1.36c0.05-0.16,0.1-0.28,0.15-0.4c0.06-0.17,0.13-0.34,0.18-0.51l0.23-0.89
				c0.01-0.02,0.01-0.05,0.02-0.07c0.11-0.36,0.17-0.77,0.22-1.2c0.02-0.17,0.05-0.34,0.07-0.51c0.07-0.37,0.07-0.73,0.08-1.11
				c0.01-0.19,0.01-0.38,0.01-0.57c0-0.12,0-0.23,0.01-0.34c0-0.12,0.01-0.24,0-0.36l-0.09-0.84c-0.03-0.17-0.04-0.37-0.06-0.56
				c-0.02-0.28-0.05-0.54-0.1-0.71l-0.5-2.15c-0.07-0.31-0.04-0.63,0.08-0.91c0.13-0.31,0.38-0.58,0.7-0.73
				c0.62-0.29,1.35-0.12,1.77,0.42l1.37,1.78c0.24,0.31,0.45,0.66,0.64,0.99c0.09,0.15,0.18,0.3,0.28,0.47l0.48,0.83
				c0.15,0.26,0.26,0.51,0.36,0.74c0.04,0.09,0.08,0.18,0.12,0.27c0.1,0.23,0.17,0.39,0.25,0.56c0.22,0.5,0.48,1.08,0.63,1.72
				l0.12,0.4c0.18,0.61,0.39,1.3,0.5,2.05l0.21,1.17c0.05,0.37,0.07,0.68,0.1,1l0.03,0.38c0.09,0.88,0.07,1.74,0.05,2.58l0,0.11
				c-0.01,0.71-0.09,1.4-0.16,2.05l-0.06,0.54c-0.01,0.04-0.01,0.07-0.02,0.11c-0.04,0.22-0.08,0.43-0.11,0.65
				c-0.1,0.58-0.2,1.19-0.36,1.77l-0.24,0.97c0,0.03-0.03,0.12-0.04,0.15l-0.3,0.98c-0.08,0.26-0.16,0.51-0.25,0.75
				c0.31,1.43,0.19,2.96-0.43,4.4l-0.96,2.22c-0.44,1.02-1.2,2.12-2.13,3.14c1.47,2.31-0.88,7.15-3.93,14.2l0,0l-15.76-6.83
				c2.35-5.41,4.99-12.07,7.67-12.58c0.02-0.31,0.06-0.61,0.1-0.91c-0.21-0.06-0.42-0.12-0.63-0.21 M106.32,45.3"/>
		</g>
		<g>
			<polygon points="100.26,67.12 66.58,77.86 71.95,80.36 54.99,86.04 59.53,88.46 35.65,99.51 64.92,87.31 60.89,85.74 
				78.53,79.83 73.38,77.87 			"/>
			<polygon points="172.01,93.02 139.47,84.54 144.24,81.96 127.83,77.44 131.84,74.96 108.42,65.74 136.99,75.79 133.38,77.44 
				150.45,82.15 145.83,84.22 			"/>
			<polygon points="123.43,91.04 111.96,81.57 115.05,81.24 109.35,76.35 112.06,75.94 104.95,67.72 114.07,77.21 111.84,77.32 
				117.76,82.41 114.93,82.53 			"/>
			<polygon points="102.65,70.74 91.49,89.59 94.83,87.34 87.01,104.18 96.6,85.36 94.83,86.23 			"/>
			<polygon points="153.78,69.04 134.34,68.53 134.1,67.99 119.78,66.4 136.42,67.55 136.78,67.89 			"/>
			<polygon points="77.86,68.72 66.32,69.33 80.84,67.03 94.25,66.11 			"/>
		</g>
	</g>
</g>
<g>
</g>
<g>
</g>
<g>
</g>
<g>
</g>
<g>
</g>
<g>
</g>
</svg>
