<?xml version="1.0" encoding="UTF-8" standalone="no"?>
<!-- Generator: Adobe Illustrator 19.0.0, SVG Export Plug-In . SVG Version: 6.00 Build 0)  -->

<svg
   version="1.1"
   id="Layer_1"
   x="0px"
   y="0px"
   viewBox="0 0 512 512"
   style="enable-background:new 0 0 512 512;"
   xml:space="preserve"
   sodipodi:docname="check.svg"
   inkscape:version="1.2.2 (b0a8486541, 2022-12-01)"
   xmlns:inkscape="http://www.inkscape.org/namespaces/inkscape"
   xmlns:sodipodi="http://sodipodi.sourceforge.net/DTD/sodipodi-0.dtd"
   xmlns="http://www.w3.org/2000/svg"
   xmlns:svg="http://www.w3.org/2000/svg"><defs
   id="defs609" /><sodipodi:namedview
   id="namedview607"
   pagecolor="#ffffff"
   bordercolor="#000000"
   borderopacity="0.25"
   inkscape:showpageshadow="2"
   inkscape:pageopacity="0.0"
   inkscape:pagecheckerboard="0"
   inkscape:deskcolor="#d1d1d1"
   showgrid="false"
   inkscape:zoom="1.138"
   inkscape:cx="165.64148"
   inkscape:cy="277.68014"
   inkscape:window-width="1920"
   inkscape:window-height="1004"
   inkscape:window-x="0"
   inkscape:window-y="0"
   inkscape:window-maximized="1"
   inkscape:current-layer="Layer_1" />
<path
   style="fill:#cccccc;fill-opacity:1"
   d="M255.832,32.021c123.697,0.096,223.907,100.45,223.811,224.147s-100.45,223.907-224.147,223.811  C131.863,479.883,31.685,379.633,31.685,256C31.869,132.311,132.143,32.117,255.832,32.021 M255.832,0  C114.443,0.096-0.096,114.779,0,256.168S114.779,512.096,256.168,512C397.485,511.904,512,397.317,512,256  C511.952,114.571,397.261-0.048,255.832,0z"
   id="path568" />

<g
   id="g576">
</g>
<g
   id="g578">
</g>
<g
   id="g580">
</g>
<g
   id="g582">
</g>
<g
   id="g584">
</g>
<g
   id="g586">
</g>
<g
   id="g588">
</g>
<g
   id="g590">
</g>
<g
   id="g592">
</g>
<g
   id="g594">
</g>
<g
   id="g596">
</g>
<g
   id="g598">
</g>
<g
   id="g600">
</g>
<g
   id="g602">
</g>
<g
   id="g604">
</g>
<path
   style="color:#000000;fill:#00b41b;fill-opacity:1;stroke:none;stroke-width:0.829707;stroke-linecap:square;stroke-linejoin:round;stroke-miterlimit:3.2;stroke-dashoffset:12.74;stroke-opacity:0.867529;-inkscape-stroke:none;paint-order:fill markers stroke"
   d="m 399.06556,139.7984 -15.21857,15.53225 -166.57386,170.00603 -79.76154,-80.21712 -15.33769,-15.42388 -31.942606,29.62064 15.335986,15.42387 95.85195,96.39795 c 8.75888,8.80701 23.36293,8.75536 32.0548,-0.11337 L 416.014,184.72454 431.23259,169.1923 Z"
   id="path3943"
   sodipodi:nodetypes="cccccccccccc" /></svg>
