<?xml version="1.0" encoding="iso-8859-1"?>
<!-- Generator: Adobe Illustrator 19.0.0, SVG Export Plug-In . SVG Version: 6.00 Build 0)  -->
<svg version="1.1" id="Layer_1" xmlns="http://www.w3.org/2000/svg" xmlns:xlink="http://www.w3.org/1999/xlink" x="0px" y="0px"
	 viewBox="0 0 512 512" style="enable-background:new 0 0 512 512;" xml:space="preserve">
<circle style="fill:#00CC96;" cx="255.997" cy="256" r="255.997"/>
<path style="fill:#07B587;" d="M511.889,249.228l-66.86-66.86l-140.383,67.86l-67.86-67.86L110.952,343.631l-43.981,21.213
	l142.827,142.827c14.993,2.777,30.432,4.221,46.202,4.221c141.383,0,256-114.616,256-255.999
	C512,253.671,512,251.449,511.889,249.228z"/>
<path style="fill:#FFD630;" d="M66.971,146.939h134.386l35.429,35.429v182.587H66.971V146.939z"/>
<path style="fill:#999999;" d="M201.357,146.939v35.429h35.429L201.357,146.939z"/>
<path style="fill:#E84F4F;" d="M87.074,275.771h87.629v10.884H87.074V275.771z M87.074,255.558h114.394v10.884H87.074V255.558z
	 M87.074,194.917h114.394v10.884H87.074V194.917z M87.074,215.131h114.394v10.884H87.074V215.131z M87.074,235.344h114.394v10.884
	H87.074V235.344z"/>
<path style="fill:#FFD630;" d="M275.214,146.939H409.6l35.429,35.429v182.587H275.214V146.939z"/>
<path style="fill:#999999;" d="M409.6,146.939v35.429h35.429L409.6,146.939z"/>
<path style="fill:#E84F4F;" d="M307.866,275.771h87.629v10.884h-87.629V275.771z M307.866,255.558h114.394v10.884H307.866V255.558z
	 M307.866,194.917h114.394v10.884H307.866V194.917z M307.866,215.131h114.394v10.884H307.866V215.131z M307.866,235.344h114.394
	v10.884H307.866V235.344z"/>
<circle style="fill:#F7F7F8;" cx="256.108" cy="256" r="46.536"/>
<path style="fill:#E84F4F;" d="M273.437,226.904l15.882,26.322c1,1.555,1.111,3.554,0.222,5.22l0,0l0,0v0.111l-15.993,26.544
	c-1.333,2.221-4.332,2.999-6.664,1.666l0,0c-2.332-1.333-2.999-4.332-1.666-6.664l11.55-19.214h-49.646
	c-2.666,0-4.776-2.221-4.776-4.776l0,0c0-2.666,2.221-4.776,4.776-4.776h49.646l-11.55-19.214c-1.333-2.332-0.666-5.22,1.666-6.664
	l0,0c2.332-1.333,5.22-0.666,6.664,1.666L273.437,226.904z"/>
<g>
</g>
<g>
</g>
<g>
</g>
<g>
</g>
<g>
</g>
<g>
</g>
<g>
</g>
<g>
</g>
<g>
</g>
<g>
</g>
<g>
</g>
<g>
</g>
<g>
</g>
<g>
</g>
<g>
</g>
</svg>
