<?xml version="1.0" encoding="iso-8859-1"?>
<!-- Generator: Adobe Illustrator 19.0.0, SVG Export Plug-In . SVG Version: 6.00 Build 0)  -->
<svg version="1.1" id="Layer_1" xmlns="http://www.w3.org/2000/svg" xmlns:xlink="http://www.w3.org/1999/xlink" x="0px" y="0px"
	 viewBox="0 0 410.8 410.8" style="enable-background:new 0 0 410.8 410.8;" xml:space="preserve">
<path style="fill:#9CE0FF;" d="M333.4,146.8c17.6,0,32,14.4,32,32v192c0,17.6-14.4,32-32,32h-256c-17.6,0-32-14.4-32-32v-192
	c0-17.6,14.4-32,32-32H333.4z"/>
<path style="fill:#00AEEF;" d="M333.4,410.8h-256c-22,0-40-18-40-40v-192c0-22,18-40,40-40h256c22,0,40,18,40,40v192
	C373.4,392.8,355.4,410.8,333.4,410.8z M77.4,154.8c-13.2,0-24,10.8-24,24v192c0,13.2,10.8,24,24,24h256c13.2,0,24-10.8,24-24v-192
	c0-13.2-10.8-24-24-24H77.4z"/>
<g>
	<path style="fill:#C6490F;" d="M205.4,226.8c-4.4,0-8-3.6-8-8v-196c0-4.4,3.6-8,8-8s8,3.6,8,8v196
		C213.4,223.2,209.8,226.8,205.4,226.8z"/>
	<path style="fill:#C6490F;" d="M205.4,274.8c-4.4,0-8-3.6-8-8v-12c0-4.4,3.6-8,8-8s8,3.6,8,8v12
		C213.4,271.2,209.8,274.8,205.4,274.8z"/>
	<path style="fill:#C6490F;" d="M276.2,86.8c-2,0-4-0.8-5.6-2.4l-65.2-65.2l-65.2,65.2c-3.2,3.2-8,3.2-11.2,0s-3.2-8,0-11.2
		l70.8-70.8c3.2-3.2,8-3.2,11.2,0l70.8,70.8c3.2,3.2,3.2,8,0,11.2C280.2,86,278.2,86.8,276.2,86.8z"/>
</g>
<g>
</g>
<g>
</g>
<g>
</g>
<g>
</g>
<g>
</g>
<g>
</g>
<g>
</g>
<g>
</g>
<g>
</g>
<g>
</g>
<g>
</g>
<g>
</g>
<g>
</g>
<g>
</g>
<g>
</g>
</svg>
