<?xml version="1.0" encoding="iso-8859-1"?>
<!-- Generator: Adobe Illustrator 19.0.0, SVG Export Plug-In . SVG Version: 6.00 Build 0)  -->
<svg version="1.1" id="Layer_1" xmlns="http://www.w3.org/2000/svg" xmlns:xlink="http://www.w3.org/1999/xlink" x="0px" y="0px"
	 viewBox="0 0 512.001 512.001" style="enable-background:new 0 0 512.001 512.001;" xml:space="preserve">
<g>
	<rect x="20.905" y="10.199" style="fill:#1FCFC1;" width="470.193" height="59.4"/>
	<polygon style="fill:#1FCFC1;" points="219.419,269.631 292.582,269.631 491.096,69.602 20.905,69.602 	"/>
</g>
<polygon style="fill:#FBB429;" points="292.582,501.801 219.419,443.271 219.419,269.631 292.582,269.631 "/>
<g>
	<path style="fill:#4D4D4D;" d="M501.295,10.199C501.295,4.566,496.728,0,491.096,0H20.905c-5.632,0-10.199,4.566-10.199,10.199
		v59.403c0,2.802,1.131,5.338,2.96,7.182v0.002l0.024,0.026c0.001,0.002,0.003,0.003,0.005,0.005l195.524,197.016v169.438
		c0,3.099,1.408,6.029,3.828,7.965l73.163,58.53c1.845,1.476,4.099,2.235,6.373,2.235c1.501,0,3.011-0.332,4.416-1.007
		c3.534-1.699,5.781-5.272,5.781-9.193V273.833L498.306,76.816c0.002-0.002,0.003-0.003,0.005-0.005l0.024-0.025v-0.002
		c1.829-1.843,2.96-4.381,2.96-7.182V10.199z M31.104,20.398h449.793v39.005H31.104V20.398z M282.383,480.58l-52.765-42.211V279.83
		h52.765V480.58z M288.335,259.432h-64.669L45.396,79.802h421.209L288.335,259.432z"/>
	<path style="fill:#4D4D4D;" d="M185.868,205.631c1.991,1.992,4.602,2.987,7.212,2.987c2.61,0,5.22-0.995,7.211-2.987
		c3.984-3.983,3.984-10.44,0.001-14.424l-4.391-4.391c-3.98-3.982-10.439-3.984-14.424,0c-3.984,3.983-3.984,10.44-0.001,14.424
		L185.868,205.631z"/>
	<path style="fill:#4D4D4D;" d="M88.806,108.569l70.238,70.238c1.992,1.991,4.602,2.987,7.212,2.987c2.61,0,5.22-0.996,7.212-2.987
		c3.983-3.983,3.983-10.441,0-14.425L103.23,94.145c-3.984-3.982-10.44-3.982-14.425,0C84.823,98.129,84.823,104.587,88.806,108.569
		z"/>
</g>
<g>
</g>
<g>
</g>
<g>
</g>
<g>
</g>
<g>
</g>
<g>
</g>
<g>
</g>
<g>
</g>
<g>
</g>
<g>
</g>
<g>
</g>
<g>
</g>
<g>
</g>
<g>
</g>
<g>
</g>
</svg>
