<?xml version="1.0" encoding="UTF-8" standalone="no"?>
<!-- Uploaded to: SVG Repo, www.svgrepo.com, Generator: SVG Repo Mixer Tools -->

<svg
   width="800px"
   height="800px"
   viewBox="0 0 24 24"
   fill="none"
   version="1.1"
   id="svg6"
   sodipodi:docname="fullscreen-exit.svg"
   inkscape:version="1.2.2 (b0a8486541, 2022-12-01)"
   xmlns:inkscape="http://www.inkscape.org/namespaces/inkscape"
   xmlns:sodipodi="http://sodipodi.sourceforge.net/DTD/sodipodi-0.dtd"
   xmlns="http://www.w3.org/2000/svg"
   xmlns:svg="http://www.w3.org/2000/svg">
  <defs
     id="defs10" />
  <sodipodi:namedview
     id="namedview8"
     pagecolor="#ffffff"
     bordercolor="#000000"
     borderopacity="0.25"
     inkscape:showpageshadow="2"
     inkscape:pageopacity="0.0"
     inkscape:pagecheckerboard="0"
     inkscape:deskcolor="#d1d1d1"
     showgrid="true"
     inkscape:zoom="0.65672542"
     inkscape:cx="118.00975"
     inkscape:cy="504.01582"
     inkscape:window-width="1920"
     inkscape:window-height="1003"
     inkscape:window-x="1920"
     inkscape:window-y="0"
     inkscape:window-maximized="1"
     inkscape:current-layer="svg6">
    <inkscape:grid
       type="xygrid"
       id="grid261" />
  </sodipodi:namedview>
  <path
     d="M 0.44007697,22.145783 7.465795,15.120055 h -3.58579 c -0.55228,0 -1,-0.4477 -1,-1 0,-0.5523 0.44772,-1 1,-1 h 5.99931 0.0037 c 0.25399,8e-4 0.50776,0.0977 0.70198,0.2908 l 0.0042,0.0042 c 0.09483,0.0954 0.16646,0.2051 0.2149,0.3222 0.04889,0.1179 0.07588,0.2472 0.07588,0.3828 v 6 c 0,0.5523 -0.44772,1 -1,1 -0.55228,0 -1,-0.4477 -1,-1 v -3.5858 l -7.025718,7.025728 c -0.39053,0.3905 -1.02371003,0.3905 -1.41421003,0 -0.3905,-0.3905 -0.3905,-1.0237 0,-1.4142 z"
     fill="#000000"
     id="path4"
     sodipodi:nodetypes="ccssscccccssssccsc" />
  <path
     d="M 23.557814,1.879822 16.532096,8.90555 h 3.58579 c 0.55228,0 1,0.4477 1,1 0,0.5523 -0.44772,1 -1,1 h -5.99931 -0.0037 c -0.25399,-8e-4 -0.50776,-0.0977 -0.70198,-0.2908 l -0.0042,-0.0042 c -0.09483,-0.0954 -0.16646,-0.2051 -0.2149,-0.3222 -0.04889,-0.1179 -0.07588,-0.2472 -0.07588,-0.3828 v -6 c 0,-0.5523 0.44772,-1 1,-1 0.55228,0 1,0.4477 1,1 v 3.5858 l 7.025678,-7.02572803 c 0.39053,-0.39049999 1.02371,-0.39049999 1.41421,0 0.3905,0.3905 0.3905,1.02370003 0,1.41420003 z"
     fill="#000000"
     id="path270"
     sodipodi:nodetypes="ccssscccccssssccsc" />
</svg>
