<?xml version="1.0" encoding="iso-8859-1"?>
<!-- Generator: Adobe Illustrator 19.0.0, SVG Export Plug-In . SVG Version: 6.00 Build 0)  -->
<svg version="1.1" id="Layer_1" xmlns="http://www.w3.org/2000/svg" xmlns:xlink="http://www.w3.org/1999/xlink" x="0px" y="0px"
	 viewBox="0 0 297 297" style="enable-background:new 0 0 297 297;" xml:space="preserve">
<g>
	<g>
		<circle style="fill:#9ADAD9;" cx="148.5" cy="148.5" r="148.5"/>
	</g>
	<path style="fill:#17AB93;" d="M296.961,151.583l-82.066-82.066L54.302,242.121l47.32,47.32C116.359,294.34,132.118,297,148.5,297
		C229.484,297,295.319,232.173,296.961,151.583z"/>
	<g>
		<path style="fill:#5D7486;" d="M247.5,132v16.5h-198V132l28.978-57.956C80.943,69.114,85.982,66,91.494,66h114.012
			c5.512,0,10.551,3.114,13.016,8.044L247.5,132z"/>
	</g>
	<g>
		<path style="fill:#445C6D;" d="M247.5,132l-28.978-57.956c-2.465-4.93-7.504-8.044-13.016-8.044h-57.339v82.5H247.5V132z"/>
	</g>
	<g>
		<path style="fill:#345065;" d="M247.5,132l-8.25,12.75H57.75L49.5,132l0,0v98.167c0,9.573,7.76,17.333,17.333,17.333h163.333
			c9.573,0,17.333-7.76,17.333-17.333V132H247.5z"/>
	</g>
	<g>
		<path style="fill:#284151;" d="M239.25,144.75h-91.083V247.5h82c9.573,0,17.333-7.76,17.333-17.333V132L239.25,144.75z"/>
	</g>
	<g>
		<polygon style="fill:#ECF0F1;" points="49.5,132 247.5,132 214.5,198 82.5,198 		"/>
	</g>
	<g>
		<polygon style="fill:#D4D6D6;" points="247.5,132 148.167,132 148.167,198 214.5,198 		"/>
	</g>
	<g>
		<rect x="82.5" y="99" style="fill:#D0D5D9;" width="132" height="99"/>
	</g>
	<g>
		<rect x="148.167" y="99" style="fill:#B3B8BC;" width="66.333" height="99"/>
	</g>
	<g>
		<rect x="99" y="118" style="fill:#B0B5B2;" width="99" height="3.214"/>
	</g>
	<g>
		<rect x="99" y="132.596" style="fill:#B0B5B2;" width="99" height="3.214"/>
	</g>
	<g>
		<rect x="99" y="147.191" style="fill:#B0B5B2;" width="99" height="3.214"/>
	</g>
	<g>
		<rect x="99" y="161.786" style="fill:#B0B5B2;" width="99" height="3.214"/>
	</g>
	<g>
		<rect x="148.167" y="118" style="fill:#959997;" width="49.833" height="3.214"/>
	</g>
	<g>
		<rect x="148.167" y="132.596" style="fill:#959997;" width="49.833" height="3.214"/>
	</g>
	<g>
		<rect x="148.167" y="147.191" style="fill:#959997;" width="49.833" height="3.214"/>
	</g>
	<g>
		<rect x="148.167" y="161.786" style="fill:#959997;" width="49.833" height="3.214"/>
	</g>
</g>
<g>
</g>
<g>
</g>
<g>
</g>
<g>
</g>
<g>
</g>
<g>
</g>
<g>
</g>
<g>
</g>
<g>
</g>
<g>
</g>
<g>
</g>
<g>
</g>
<g>
</g>
<g>
</g>
<g>
</g>
</svg>
