<?xml version="1.0" encoding="iso-8859-1"?>
<!-- Generator: Adobe Illustrator 19.0.0, SVG Export Plug-In . SVG Version: 6.00 Build 0)  -->
<svg version="1.1" id="Layer_1" xmlns="http://www.w3.org/2000/svg" xmlns:xlink="http://www.w3.org/1999/xlink" x="0px" y="0px"
	 viewBox="0 0 512.203 512.203" style="enable-background:new 0 0 512.203 512.203;" xml:space="preserve">
<g>
	<path style="fill:#26B99A;" d="M501.981,236.116l-103.23-74.549c-11.67-8.439-27.992-0.097-27.992,14.31v53.742h-97.103V150.17
		c0-58.403-47.519-105.931-105.931-105.931h-35.31C121.935,18.375,100.255,0.102,70.621,0.102C31.62,0.102,0,31.722,0,70.722
		c0,39.009,31.62,70.621,70.621,70.621c29.634,0,51.315-18.264,61.793-44.138h35.31c29.21,0,52.966,23.764,52.966,52.966v79.448
		h-88.276c-10.478-25.865-32.159-44.138-61.793-44.138c-39,0-70.621,31.62-70.621,70.621c0,39.009,31.62,70.621,70.621,70.621
		c29.634,0,51.315-18.264,61.793-44.138h88.276v79.448c0,29.21-23.755,52.966-52.966,52.966h-35.31
		c-10.478-25.865-32.159-44.138-61.793-44.138c-39,0-70.621,31.62-70.621,70.621c0,39.009,31.62,70.621,70.621,70.621
		c29.634,0,51.315-18.264,61.793-44.138h35.31c58.412,0,105.931-47.519,105.931-105.931v-70.621h97.103v44.924
		c0,14.398,16.322,22.74,27.992,14.31l103.23-74.549C515.61,266.253,515.61,245.959,501.981,236.116"/>
</g>
<g>
</g>
<g>
</g>
<g>
</g>
<g>
</g>
<g>
</g>
<g>
</g>
<g>
</g>
<g>
</g>
<g>
</g>
<g>
</g>
<g>
</g>
<g>
</g>
<g>
</g>
<g>
</g>
<g>
</g>
</svg>
