<?xml version="1.0" encoding="iso-8859-1"?>
<!-- Generator: Adobe Illustrator 19.0.0, SVG Export Plug-In . SVG Version: 6.00 Build 0)  -->
<svg version="1.1" id="Layer_1" xmlns="http://www.w3.org/2000/svg" xmlns:xlink="http://www.w3.org/1999/xlink" x="0px" y="0px"
	 viewBox="0 0 512 512" style="enable-background:new 0 0 512 512;" xml:space="preserve">
<g>
	<polygon style="fill:#CEE8FA;" points="348.632,315.499 310.369,347.136 272.106,315.499 268.721,315.499 123.386,435.666 
		123.386,439.058 497.352,439.058 497.352,435.666 352.017,315.499 	"/>
	<polygon style="fill:#CEE8FA;" points="219.929,151.439 219.929,187.235 123.386,187.235 123.386,192.532 310.369,347.136 
		497.353,192.532 497.353,151.439 	"/>
</g>
<path style="fill:#2D527C;" d="M506.686,203.819c3.366-2.783,5.314-6.922,5.314-11.288v-41.093c0-8.088-6.559-14.647-14.647-14.647
	H234.575v-21.15c0-8.088-6.557-14.647-14.647-14.647h-82.274V72.939c0-5.504-3.086-10.543-7.988-13.046
	c-4.902-2.499-10.793-2.045-15.252,1.185L6.054,139.576C2.251,142.331,0,146.743,0,151.439c0,4.696,2.251,9.107,6.054,11.862
	l102.684,74.388v112.376c0,8.088,6.557,14.647,14.647,14.647s14.647-6.559,14.647-14.647V223.647L247.427,314.1L114.052,424.379
	c-3.366,2.783-5.314,6.922-5.314,11.288v3.392c0,8.088,6.557,14.647,14.647,14.647H497.35l0,0l0,0
	c8.088,0,14.647-6.559,14.647-14.647V281.063c0-8.088-6.559-14.647-14.647-14.647s-14.647,6.559-14.647,14.647v123.49L373.308,314.1
	L506.686,203.819z M234.576,166.085h248.13v19.552L339.308,304.203c-0.003,0.003-0.006,0.004-0.009,0.007l-28.93,23.921
	l-28.93-23.921c-0.001-0.001-0.003-0.003-0.004-0.004L157.683,201.885h62.245c5.561,0,10.399-3.101,12.879-7.666
	c1.128-2.075,1.768-4.454,1.768-6.982v-21.151H234.576z M108.36,201.241l-68.748-49.802l68.748-49.802v14.005
	c0,8.088,6.557,14.647,14.647,14.647h82.274v42.301h-81.895c-0.01,0-0.019,0.001-0.028,0.001h-0.35
	c-8.089,0-14.647,6.559-14.647,14.647v14.002H108.36z M460.757,424.413H159.983l110.431-91.308l30.622,25.32
	c0.338,0.28,0.687,0.542,1.043,0.787c2.493,1.714,5.392,2.572,8.29,2.572c2.899,0,5.797-0.858,8.29-2.572
	c0.356-0.245,0.704-0.507,1.043-0.787l30.624-25.321L460.757,424.413z"/>
<g>
</g>
<g>
</g>
<g>
</g>
<g>
</g>
<g>
</g>
<g>
</g>
<g>
</g>
<g>
</g>
<g>
</g>
<g>
</g>
<g>
</g>
<g>
</g>
<g>
</g>
<g>
</g>
<g>
</g>
</svg>
