<?xml version="1.0" encoding="iso-8859-1"?>
<!-- Generator: Adobe Illustrator 19.0.0, SVG Export Plug-In . SVG Version: 6.00 Build 0)  -->
<svg version="1.1" id="Layer_1" xmlns="http://www.w3.org/2000/svg" xmlns:xlink="http://www.w3.org/1999/xlink" x="0px" y="0px"
	 viewBox="0 0 512 512" style="enable-background:new 0 0 512 512;" xml:space="preserve">
<g>
	<rect x="84.261" y="256" style="fill:#10BAFC;" width="306.573" height="245.551"/>
	<rect x="84.261" y="10.449" style="fill:#10BAFC;" width="65.285" height="164.645"/>
</g>
<rect x="149.546" y="10.449" style="fill:#FFFFFF;" width="241.288" height="164.645"/>
<path style="fill:#3F5968;" d="M501.551,63.578v437.973H390.837V255.996H84.26v245.555H10.449V10.449H84.26v164.648h306.577V10.449
	h57.585L501.551,63.578z"/>
<path d="M508.939,56.189L455.811,3.061C453.851,1.101,451.193,0,448.422,0h-57.585H149.545H84.26H10.449C4.678,0,0,4.678,0,10.449
	v491.102C0,507.322,4.678,512,10.449,512H84.26c0.014,0,0.027-0.002,0.041-0.002h306.497c0.014,0,0.027,0.002,0.041,0.002h110.713
	c5.771,0,10.449-4.678,10.449-10.449V63.578C512,60.807,510.899,58.149,508.939,56.189z M159.994,20.898h220.394v143.75H159.994
	V20.898z M139.096,164.648H94.709V20.898h44.387V164.648z M380.388,491.1H94.709V266.445h285.679V491.1z M491.102,491.102h-89.815
	V255.996c0-5.771-4.678-10.449-10.449-10.449h-0.001H84.26c-5.771,0-10.449,4.678-10.449,10.449v235.106H20.898V20.898h52.913
	v154.199c0,5.771,4.678,10.449,10.449,10.449h65.285h241.292c5.771,0,10.449-4.678,10.449-10.449V20.898h42.808l47.008,47.008
	V491.102z"/>
<path d="M328.385,32.643c-5.771,0-10.449,4.678-10.449,10.449v99.356c0,5.771,4.678,10.449,10.449,10.449
	c5.771,0,10.449-4.678,10.449-10.449V43.092C338.834,37.321,334.156,32.643,328.385,32.643z"/>
<path d="M300.583,449.551h27.804c5.771,0,10.449-4.678,10.449-10.449c0-5.771-4.678-10.449-10.449-10.449h-27.804
	c-5.771,0-10.449,4.678-10.449,10.449C290.134,444.873,294.812,449.551,300.583,449.551z"/>
<path d="M146.71,449.551h120.784c5.771,0,10.449-4.678,10.449-10.449c0-5.771-4.678-10.449-10.449-10.449H146.71
	c-5.771,0-10.449,4.678-10.449,10.449C136.261,444.873,140.939,449.551,146.71,449.551z"/>
<path d="M300.583,392.775h27.804c5.771,0,10.449-4.678,10.449-10.449c0-5.771-4.678-10.449-10.449-10.449h-27.804
	c-5.771,0-10.449,4.678-10.449,10.449C290.134,388.097,294.812,392.775,300.583,392.775z"/>
<path d="M146.71,392.775h120.784c5.771,0,10.449-4.678,10.449-10.449c0-5.771-4.678-10.449-10.449-10.449H146.71
	c-5.771,0-10.449,4.678-10.449,10.449C136.261,388.097,140.939,392.775,146.71,392.775z"/>
<path d="M300.583,336h27.804c5.771,0,10.449-4.678,10.449-10.449c0-5.771-4.678-10.449-10.449-10.449h-27.804
	c-5.771,0-10.449,4.678-10.449,10.449C290.134,331.323,294.812,336,300.583,336z"/>
<path d="M146.71,336h120.784c5.771,0,10.449-4.678,10.449-10.449c0-5.771-4.678-10.449-10.449-10.449H146.71
	c-5.771,0-10.449,4.678-10.449,10.449C136.261,331.323,140.939,336,146.71,336z"/>
<g>
</g>
<g>
</g>
<g>
</g>
<g>
</g>
<g>
</g>
<g>
</g>
<g>
</g>
<g>
</g>
<g>
</g>
<g>
</g>
<g>
</g>
<g>
</g>
<g>
</g>
<g>
</g>
<g>
</g>
</svg>
