<?xml version="1.0" encoding="iso-8859-1"?>
<!-- Generator: Adobe Illustrator 19.0.0, SVG Export Plug-In . SVG Version: 6.00 Build 0)  -->
<svg version="1.1" id="Capa_1" xmlns="http://www.w3.org/2000/svg" xmlns:xlink="http://www.w3.org/1999/xlink" x="0px" y="0px"
	 viewBox="0 0 512 512" style="enable-background:new 0 0 512 512;" xml:space="preserve">
<g>
	<g>
		<path style="fill:#B2F3FF;" d="M356,288c-72.785,0-132-59.215-132-132S283.215,24,356,24s132,59.215,132,132S428.785,288,356,288z
			"/>
	</g>
	<g>
		
			<rect x="211.373" y="263.858" transform="matrix(0.7071 -0.7071 0.7071 0.7071 -128.0387 246.8873)" style="fill:#8A8895;" width="45.255" height="28.284"/>
	</g>
	<g>
		<path style="fill:#7E5C62;" d="M231.984,304.715c-3-6.656-8.227-12.27-10.32-14.367c-3.789-3.793-13.711-12.613-24.008-12.613
			c-4.391,0-8.305,1.594-11.453,4.754L7.031,471.027C2.5,475.563,0,481.59,0,488s2.5,12.438,7.031,16.969
			C11.563,509.504,17.594,512,24,512s12.438-2.496,16.82-6.887L229.656,325.66C232.688,322.633,237.016,315.883,231.984,304.715z"/>
	</g>
	<g>
		<path style="fill:#5C546A;" d="M356,0c-86.016,0-156,69.98-156,156s69.984,156,156,156s156-69.98,156-156S442.016,0,356,0z
			 M356,288c-72.785,0-132-59.215-132-132S283.215,24,356,24s132,59.215,132,132S428.785,288,356,288z"/>
	</g>
	<g>
		<path style="fill:#9E6459;" d="M231.984,304.715c-3-6.656-8.227-12.27-10.32-14.367l-0.006-0.006L7.031,504.969
			C11.563,509.504,17.594,512,24,512s12.438-2.496,16.82-6.887L229.656,325.66C232.688,322.633,237.016,315.883,231.984,304.715z"/>
	</g>
	<g>
		<polygon style="fill:#5C546A;" points="165.237,304.55 207.45,346.763 219.051,335.738 176.262,292.949 		"/>
	</g>
	<g>
		<path style="fill:#FFFFFF;" d="M388,172c-26.467,0-48-21.533-48-48s21.533-48,48-48s48,21.533,48,48S414.467,172,388,172z"/>
	</g>
</g>
<g>
</g>
<g>
</g>
<g>
</g>
<g>
</g>
<g>
</g>
<g>
</g>
<g>
</g>
<g>
</g>
<g>
</g>
<g>
</g>
<g>
</g>
<g>
</g>
<g>
</g>
<g>
</g>
<g>
</g>
</svg>
