<?xml version="1.0" encoding="iso-8859-1"?>
<!-- Generator: Adobe Illustrator 19.0.0, SVG Export Plug-In . SVG Version: 6.00 Build 0)  -->
<svg version="1.1" id="Layer_1" xmlns="http://www.w3.org/2000/svg" xmlns:xlink="http://www.w3.org/1999/xlink" x="0px" y="0px"
	 viewBox="0 0 499.498 499.498" style="enable-background:new 0 0 499.498 499.498;" xml:space="preserve">
<g>
	<path style="fill:#FFDAAA;" d="M250.605,133.426c-0.286,0-0.571,0.006-0.856,0.007c0.059,0,0.118,0.001,0.177,0.001
		C250.153,133.434,250.378,133.426,250.605,133.426z"/>
	<path style="fill:#FFDAAA;" d="M249.749,436.065c0.286,0.001,0.571,0.007,0.856,0.007c-0.227,0-0.453-0.008-0.679-0.009
		C249.867,436.064,249.808,436.065,249.749,436.065z"/>
	<path style="fill:#FFDAAA;" d="M99.282,284.749c0-82.867,66.958-150.379,149.611-151.302
		c-49.902,0.294-98.835,13.751-141.619,38.973c-41.985,24.75-77.077,60.13-101.48,102.314L0,284.749l5.793,10.015
		c24.403,42.185,59.495,77.564,101.48,102.314c42.784,25.221,91.718,38.679,141.619,38.98
		C166.24,435.128,99.282,367.616,99.282,284.749z"/>
	<path style="fill:#FFC477;" d="M493.705,274.735c-24.403-42.185-59.495-77.564-101.48-102.314
		c-41.407-24.409-88.573-37.799-136.802-38.91c81.219,2.554,146.506,69.412,146.506,151.239s-65.287,148.685-146.506,151.239
		c48.229-1.111,95.396-14.5,136.802-38.91c41.985-24.75,77.077-60.13,101.48-102.314l5.793-10.015L493.705,274.735z"/>
	<path style="fill:#FFC477;" d="M248.893,436.051c0.286,0.021,0.571,0.015,0.856,0.014c0.059,0,0.118-0.001,0.177-0.001
		C249.581,436.062,249.237,436.054,248.893,436.051z"/>
	<path style="fill:#FFC477;" d="M249.926,133.435c-0.059,0-0.118-0.001-0.177-0.001c-0.286-0.001-0.571-0.007-0.856-0.007
		C249.237,133.444,249.581,133.436,249.926,133.435z"/>
	<path style="fill:#00B6BD;" d="M250.605,344.749c-33.137,0-60-26.863-60-60s26.863-60,60-60v-91.323
		c-0.227,0-0.453,0.008-0.679,0.009c-0.345,0.001-0.689,0.009-1.033,0.013C166.24,134.37,99.282,201.882,99.282,284.749
		s66.958,150.379,149.611,151.302c0.345,0.003,0.688,0.011,1.033,0.013c0.227,0.001,0.452,0.009,0.679,0.009V344.749z"/>
	<path style="fill:#00969B;" d="M401.929,284.749c0-81.827-65.287-148.685-146.506-151.239c-1.6-0.05-3.205-0.084-4.817-0.084
		v91.323c0.692,0,1.377,0.027,2.062,0.052c6.834-15.073,22.001-25.564,39.628-25.564c24.024,0,43.5,19.476,43.5,43.5
		c0,17.785-10.678,33.067-25.969,39.811c0.292,0.042,0.537,0.027,0.722-0.057c0.028,0.75,0.057,1.5,0.057,2.258
		c0,33.137-26.863,60-60,60v91.323c1.612,0,3.217-0.034,4.817-0.084C336.641,433.434,401.929,366.576,401.929,284.749z"/>
	<path style="fill:#002645;" d="M190.605,284.749c0,33.137,26.863,60,60,60s60-26.863,60-60c0-0.757-0.029-1.507-0.057-2.258
		c-0.185,0.084-0.43,0.099-0.722,0.057c-5.364,2.366-11.292,3.689-17.531,3.689c-24.024,0-43.5-19.476-43.5-43.5
		c0-6.397,1.392-12.466,3.872-17.936c-0.686-0.025-1.371-0.052-2.062-0.052C217.468,224.749,190.605,251.612,190.605,284.749z"/>
	<path style="fill:#FFC477;" d="M92.039,146.576c47.886-28.229,102.717-43.15,158.567-43.15s110.681,14.921,158.567,43.15
		c19.819,11.684,38.41,25.62,55.255,41.423l27.367-29.174c-18.991-17.814-39.955-33.529-62.309-46.708
		c-54.036-31.854-115.892-48.691-178.88-48.691s-124.844,16.837-178.88,48.692c-22.354,13.178-43.317,28.893-62.309,46.707
		l27.367,29.174C53.629,172.196,72.219,158.26,92.039,146.576z"/>
	<path style="fill:#FFFFFF;" d="M248.795,242.737c0,24.024,19.476,43.5,43.5,43.5c6.24,0,12.167-1.323,17.531-3.689
		c15.29-6.744,25.969-22.026,25.969-39.811c0-24.024-19.476-43.5-43.5-43.5c-17.627,0-32.794,10.491-39.628,25.564
		C250.188,230.272,248.795,236.34,248.795,242.737z"/>
</g>
<g>
</g>
<g>
</g>
<g>
</g>
<g>
</g>
<g>
</g>
<g>
</g>
<g>
</g>
<g>
</g>
<g>
</g>
<g>
</g>
<g>
</g>
<g>
</g>
<g>
</g>
<g>
</g>
<g>
</g>
</svg>
