<?xml version="1.0" encoding="iso-8859-1"?>
<!-- Generator: Adobe Illustrator 19.0.0, SVG Export Plug-In . SVG Version: 6.00 Build 0)  -->
<svg version="1.1" id="Layer_1" xmlns="http://www.w3.org/2000/svg" xmlns:xlink="http://www.w3.org/1999/xlink" x="0px" y="0px"
	 viewBox="0 0 392.598 392.598" style="enable-background:new 0 0 392.598 392.598;" xml:space="preserve">
<circle style="fill:#FFFFFF;" cx="196.299" cy="237.964" r="134.206"/>
<g>
	<path style="fill:#FFC10D;" d="M196.299,83.653c4.784,0,9.568,0.259,14.287,0.711l0,0V63.095h-28.574v21.333l0,0
		C186.731,83.976,191.515,83.653,196.299,83.653z"/>
	<polygon style="fill:#FFC10D;" points="235.798,21.851 156.8,21.851 156.8,41.244 235.863,41.244 	"/>
	<path style="fill:#FFC10D;" d="M300.25,123.927l11.895-11.895L296.76,96.776l-13.705,13.705c0,0.065,0,0.129,0,0.259
		c5.948,4.073,11.636,8.404,17.002,13.317C300.121,123.927,300.121,123.927,300.25,123.927z"/>
</g>
<path style="fill:#56ACE0;" d="M196.299,127.16c-49.002,0-90.57,32-105.18,76.089h28.251c6.012,0,10.925,4.848,10.925,10.925
	c0,6.012-4.848,10.925-10.925,10.925H86.206c-0.453,4.267-0.84,8.469-0.84,12.929s0.323,8.663,0.84,12.929h17.002
	c6.012,0,10.925,4.848,10.925,10.925c0,6.012-4.848,10.925-10.925,10.925H91.055c14.61,44.154,56.178,76.089,105.18,76.089
	c61.091,0,110.804-49.713,110.804-110.804S257.39,127.16,196.299,127.16z"/>
<g>
	<path style="fill:#194F82;" d="M196.299,183.143c12.218,0,22.109,9.891,22.109,22.109c0,6.012,4.848,10.925,10.925,10.925
		c6.012,0,10.925-4.848,10.925-10.925c0-20.493-14.093-37.624-32.97-42.473v-10.602c0-6.012-4.848-10.925-10.925-10.925
		c-6.077,0-10.925,4.848-10.925,10.925v10.537c-18.941,4.848-32.97,22.044-32.97,42.473c0,24.178,19.717,43.96,43.96,43.96
		c-0.388,0.065,0,0,0.065,0c11.378,0.905,22.044,10.279,22.044,21.915c0,12.218-9.891,22.109-22.109,22.109
		c-12.218,0-22.109-9.891-22.109-22.109c0-6.012-4.848-10.925-10.925-10.925c-6.012,0-10.925,4.848-10.925,10.925
		c0,20.493,14.093,37.624,32.97,42.473v10.537c0,6.012,4.848,10.925,10.925,10.925c6.077,0,10.925-4.848,10.925-10.861V313.6
		c18.941-4.848,32.97-22.044,32.97-42.473c0-24.242-21.398-43.83-45.576-43.83c0.388-0.065,0,0-0.065,0
		c-11.378-0.905-20.299-10.408-20.299-22.044C174.19,193.099,184.081,183.143,196.299,183.143z"/>
	<path style="fill:#194F82;" d="M315.119,139.83l12.283-12.283c4.073-4.073,12.024-17.131,0-30.901L312.21,81.325
		c-8.275-8.275-22.626-8.275-30.836,0l-17.907,17.907c-9.826-4.784-20.17-8.663-30.966-11.313V63.03h3.426
		c12.024,0,21.786-9.826,21.786-21.786V21.786C257.713,9.762,247.887,0,235.927,0H156.8c-12.024,0-21.786,9.826-21.786,21.786V41.18
		c0,12.024,9.826,21.786,21.786,21.786h3.426v24.954C92.347,104.275,41.859,165.43,41.859,238.158
		c0,85.139,69.301,154.44,154.44,154.44s154.44-69.301,154.44-154.44C350.739,200.792,337.293,166.594,315.119,139.83z
		 M283.184,110.416l13.705-13.705l15.321,15.321l-11.96,11.895c-0.065,0-0.065,0-0.129,0c-5.301-4.848-11.055-9.18-17.002-13.317
		C283.055,110.545,283.055,110.481,283.184,110.416z M156.8,41.244V21.851h79.063v19.394H156.8z M210.586,63.095v21.333l0,0
		c-4.719-0.453-9.503-0.711-14.287-0.711c-4.784,0-9.568,0.259-14.287,0.711l0,0V63.095H210.586z M196.299,372.299
		c-74.214,0-134.206-60.121-134.206-134.206s60.057-134.335,134.206-134.335s134.206,60.121,134.206,134.206
		S270.513,372.299,196.299,372.299z"/>
</g>
<g>
</g>
<g>
</g>
<g>
</g>
<g>
</g>
<g>
</g>
<g>
</g>
<g>
</g>
<g>
</g>
<g>
</g>
<g>
</g>
<g>
</g>
<g>
</g>
<g>
</g>
<g>
</g>
<g>
</g>
</svg>
