<?xml version="1.0" encoding="iso-8859-1"?>
<!-- Generator: Adobe Illustrator 19.0.0, SVG Export Plug-In . SVG Version: 6.00 Build 0)  -->
<svg version="1.1" id="Layer_1" xmlns="http://www.w3.org/2000/svg" xmlns:xlink="http://www.w3.org/1999/xlink" x="0px" y="0px"
	 viewBox="0 0 512 512" style="enable-background:new 0 0 512 512;" xml:space="preserve">
<path style="fill:#AFF078;" d="M511.672,242.96C504.882,107.635,393.011,0,256,0C114.615,0,0,114.616,0,256
	c0,117.865,79.659,217.108,188.072,246.872L511.672,242.96z"/>
<path style="fill:#85DC79;" d="M512,256c0-4.373-0.111-8.721-0.328-13.04L334.704,65.991l-157.409,190.8l77.913,77.913L98.6,413.4
	l89.472,89.472C209.706,508.811,232.479,512,256,512C397.384,512,512,397.384,512,256z"/>
<path style="fill:#458FDE;" d="M367.304,178.087v-33.391c0-61.471-49.833-111.304-111.304-111.304l-44.522,128l44.522,128
	C317.471,289.391,367.304,239.558,367.304,178.087z"/>
<path style="fill:#6FAEE8;" d="M256,289.391v-256c-61.471,0-111.304,49.833-111.304,111.304v33.391
	C144.696,239.558,194.528,289.391,256,289.391z"/>
<path style="fill:#3D4E9C;" d="M345.043,315.871c39.513,10.162,71.958,37.966,88.431,74.507
	c-22.884,30.186-53.293,54.35-88.431,69.699l-22.261-72.103L345.043,315.871z"/>
<path style="fill:#243870;" d="M345.043,315.871v144.206c-10.719,4.686-21.871,8.548-33.391,11.52l-22.261-79.972l22.261-79.972
	C323.183,311.652,334.369,313.11,345.043,315.871z"/>
<polygon style="fill:#DDEFFB;" points="345.043,376.843 333.913,387.974 345.043,399.104 378.435,399.104 378.435,376.843 "/>
<rect x="300.522" y="376.843" style="fill:#FFFFFF;" width="44.522" height="22.261"/>
<path style="fill:#BCDEF7;" d="M311.652,311.652v159.944c-17.786,4.575-36.43,7.012-55.652,7.012l-22.261-83.478L256,311.652
	H311.652z"/>
<path style="fill:#FFFFFF;" d="M256,311.652v166.957c-19.222,0-37.866-2.438-55.652-7.012l-22.261-79.972l22.261-79.972H256z"/>
<path style="fill:#3D4E9C;" d="M200.348,311.652v159.944c-11.52-2.972-22.673-6.834-33.391-11.52l-22.261-72.103l22.261-72.103
	C177.631,313.11,188.817,311.652,200.348,311.652z"/>
<path style="fill:#4D68B5;" d="M166.957,315.871v144.206c-35.139-15.349-65.547-39.513-88.431-69.699
	C94.998,353.836,127.443,326.033,166.957,315.871z"/>
<path style="fill:#4A75C3;" d="M256,178.349l-22.261,22.261L256,222.87c24.549,0,44.522-19.972,44.522-44.522H256z"/>
<path style="fill:#458FDE;" d="M211.478,178.349c0,24.549,19.972,44.522,44.522,44.522v-44.522H211.478z"/>
<g>
</g>
<g>
</g>
<g>
</g>
<g>
</g>
<g>
</g>
<g>
</g>
<g>
</g>
<g>
</g>
<g>
</g>
<g>
</g>
<g>
</g>
<g>
</g>
<g>
</g>
<g>
</g>
<g>
</g>
</svg>
