<svg xmlns="http://www.w3.org/2000/svg" xmlns:xlink="http://www.w3.org/1999/xlink" version="1.1" x="0px" y="0px"
     viewBox="0 0 100 125" enable-background="new 0 0 100 100" xml:space="preserve"><path d="M47.495,62.192c-5.268-2.254-10.214-4.752-14.785-7.483c-1.702,1.702-4.004,2.764-6.545,2.764  c-0.526,0-1.033-0.075-1.537-0.162c-3.598,6.751-5.429,13.429-5.474,19.973c1.661,2.097,3.509,4.018,5.518,5.743  c7.979-2.768,16.039-7.675,23.873-14.618c-0.739-1.403-1.196-2.986-1.196-4.696C47.349,63.191,47.42,62.691,47.495,62.192z"/>
    <path d="M16.695,47.617c0-1.435,0.312-2.789,0.844-4.02c-2.16-1.965-4.168-3.995-5.998-6.09C10.395,41.459,9.771,45.651,9.771,50  c0,7.493,1.848,14.523,5.064,20.638c0.851-5.139,2.673-10.31,5.366-15.43C18.079,53.399,16.695,50.688,16.695,47.617z"/>
    <path d="M48.771,16.689c2.771,0,5.245,1.268,6.978,3.249c4.172-2.608,8.57-5.103,13.221-7.439C63.315,9.296,56.862,7.47,50.001,7.47  c-7.941,0-15.322,2.465-21.558,6.662c4.562,1.859,8.945,3.885,13.179,6.023C43.359,18.052,45.903,16.689,48.771,16.689z"/>
    <path d="M57.771,29.458c5.068,3.328,9.793,6.843,14.107,10.518c3.301-5.372,6.357-11.074,9.131-17.068  c-2.145-2.739-4.633-5.155-7.352-7.253c-5.566,2.684-10.807,5.576-15.686,8.642c0.162,0.726,0.27,1.472,0.27,2.248  C58.241,27.565,58.048,28.531,57.771,29.458z"/>
    <path d="M48.771,36.398c-1.918,0-3.7-0.605-5.193-1.631c-3.261,2.766-6.253,5.62-8.929,8.56c0.61,1.303,0.984,2.746,0.984,4.29  c0,1.158-0.228,2.255-0.582,3.288c4.347,2.588,9.021,4.989,14.048,7.134c1.717-2.522,4.526-4.184,7.718-4.184  c1.596,0,3.08,0.452,4.402,1.183c2.875-3.54,5.639-7.288,8.25-11.267c-4.232-3.625-8.889-7.101-13.904-10.39  C53.841,35.235,51.438,36.398,48.771,36.398z"/>
    <path d="M72.935,46.858c-2.637,3.978-5.414,7.741-8.311,11.292c1.047,1.584,1.664,3.498,1.664,5.562  c0,0.118-0.031,0.229-0.035,0.346c6.35,1.805,13.016,3.28,19.961,4.37c0.615-1.346,1.162-2.727,1.643-4.146  C83.94,58.279,78.933,52.418,72.935,46.858z"/>
    <path d="M56.817,73.564c-1.951,0-3.766-0.619-5.275-1.676c-7.334,6.49-14.89,11.322-22.45,14.396  c6.099,3.936,13.24,6.245,20.909,6.245c14.316,0,26.854-7.932,33.982-19.841c-6.555-1.096-12.859-2.541-18.898-4.271  C63.474,71.47,60.392,73.564,56.817,73.564z"/>
    <path d="M83.995,27.328c-2.65,5.503-5.533,10.761-8.623,15.738C80.8,48.054,85.509,53.283,89.39,58.66  c0.549-2.796,0.84-5.691,0.84-8.66C90.229,41.655,87.923,33.896,83.995,27.328z"/>
    <path d="M31.517,39.502c2.69-2.901,5.654-5.726,8.881-8.457c-0.676-1.356-1.095-2.872-1.095-4.501c0-0.808,0.119-1.579,0.296-2.33  c-4.906-2.458-10.047-4.745-15.4-6.829c-4.651,4.118-8.391,9.335-10.902,15.263c2.033,2.55,4.37,4.999,6.93,7.359  c1.63-1.381,3.679-2.243,5.939-2.243C28.151,37.764,29.992,38.409,31.517,39.502z"/>
    <circle cx="25.884" cy="47.311" r="4.675"/>
    <circle cx="48.984" cy="26.41" r="4.675"/>
    <circle cx="56.547" cy="63.673" r="4.675"/>
    <text x="0" y="115" fill="#000000" font-size="5px" font-weight="bold"
          font-family="'Helvetica Neue', Helvetica, Arial-Unicode, Arial, Sans-serif">Taack</text>
    <text x="0" y="120" fill="#000000" font-size="5px" font-weight="bold"
          font-family="'Helvetica Neue', Helvetica, Arial-Unicode, Arial, Sans-serif">Intranet·Builder</text></svg>