<?xml version="1.0" encoding="UTF-8" standalone="no"?>
<svg
        xmlns:svg="http://www.w3.org/2000/svg"
        xmlns="http://www.w3.org/2000/svg"
        width="39.485001mm"
        height="39.932499mm"
        viewBox="0 0 3948.5001 3993.2499"
        xml:space="preserve"
        id="svg18"
>
 <defs
         id="defs4"><style
     type="text/css"
     id="style2">
   <![CDATA[
    .fil1 {fill:#E5312A;fill-rule:nonzero}
   ]]>
  </style></defs>
    <path
            class="fil1"
            d="m 3370.25,585 c 771,780 771,2044 0,2824 -771,779 -2021,779 -2792,0 -771,-780 -771,-2044 0,-2824 771,-780 2021,-780 2792,0 z"
            id="path8" mask="url(#hole)"/>
    <mask id="hole">
        <rect x="0" y="0" width="100%" height="100%" fill="white"/>
        <path d="m 1194.25,925 1841,1861 c 65,-89 118,-185 160,-288 64,-160 96,-327 96,-501 0,-174 -32,-341 -96,-502 -67,-165 -163,-312 -290,-440 -126,-127 -271,-225 -435,-292 -158,-65 -323,-98 -496,-98 -172,1 -337,33 -495,98 -102,42 -198,96 -285,162 z"/>
        <path d="m 2756.25,3069 -1842,-1862 c -65,89 -118,185 -160,288 -64,161 -96,328 -96,502 0,174 32,341 97,501 66,165 162,312 289,440 126,128 271,225 435,293 158,64 323,97 495,97 173,0 338,-33 496,-97 103,-43 198,-97 286,-162 z"/>
    </mask>

</svg>
